<svg xmlns="http://www.w3.org/2000/svg" viewBox="0 0 64 64" width="64" height="64" role="img" aria-label="MBL Catering">
  <rect width="64" height="64" rx="14" fill="#2f7d4f"/>
  <!-- plate -->
  <circle cx="32" cy="34" r="15" fill="none" stroke="#ffffff" stroke-width="2.4" opacity="0.55"/>
  <circle cx="32" cy="34" r="8.5" fill="#e08a2e"/>
  <!-- fork -->
  <g fill="#ffffff">
    <rect x="13.5" y="13" width="2.2" height="12" rx="1"/>
    <rect x="17" y="13" width="2.2" height="12" rx="1"/>
    <rect x="20.5" y="13" width="2.2" height="12" rx="1"/>
    <rect x="15.4" y="24" width="5.4" height="3" rx="1.5"/>
    <rect x="16.9" y="26" width="2.4" height="25" rx="1.2"/>
  </g>
  <!-- knife -->
  <g fill="#ffffff">
    <path d="M48 12c2.4 2.6 2.4 12 0 17.5-1.1 2.4-2.2 1.8-2.2-.4V13.4C45.8 11.4 46.9 10.8 48 12z"/>
    <rect x="46.4" y="28" width="2.4" height="23" rx="1.2"/>
  </g>
</svg>
